<svg width="1024" height="1024" viewBox="0 0 1024 1024" xmlns="http://www.w3.org/2000/svg">
  <defs>
    <linearGradient id="bg" x1="0%" y1="0%" x2="100%" y2="100%">
      <stop offset="0%" stop-color="#3A3A3D"/>
      <stop offset="100%" stop-color="#1C1C1E"/>
    </linearGradient>
    <linearGradient id="bean" x1="0%" y1="0%" x2="100%" y2="100%">
      <stop offset="0%" stop-color="#171412"/>
      <stop offset="100%" stop-color="#332A24"/>
    </linearGradient>
    <linearGradient id="curve" x1="0%" y1="100%" x2="100%" y2="0%">
      <stop offset="0%" stop-color="#E8862F"/>
      <stop offset="100%" stop-color="#FFC673"/>
    </linearGradient>
  </defs>

  <rect x="0" y="0" width="1024" height="1024" rx="228" fill="url(#bg)"/>

  <g transform="translate(512,512)">
    <ellipse cx="0" cy="0" rx="230" ry="300" fill="url(#bean)" transform="rotate(-18)"/>
    <path d="M -10,-280 C 60,-160 -60,-40 10,90 C 70,190 -30,260 -5,300"
          transform="rotate(-18)"
          stroke="#0A0705" stroke-width="34" fill="none" stroke-linecap="round"/>
  </g>

  <path d="M 190 660 C 320 660, 340 560, 430 520 C 520 480, 560 400, 630 320 C 680 265, 720 250, 800 220"
        fill="none" stroke="url(#curve)" stroke-width="26" stroke-linecap="round"/>

  <circle cx="430" cy="520" r="16" fill="#FFC673"/>
  <circle cx="630" cy="320" r="16" fill="#FFC673"/>
  <circle cx="800" cy="220" r="20" fill="#FFC673"/>
</svg>
